<svg xmlns="http://www.w3.org/2000/svg" viewBox="0 0 220 88" role="img" aria-labelledby="title desc">
<title id="title">PayPal</title>
<desc id="desc">Stylized PayPal wordmark for checkout.</desc>
<defs>
<linearGradient id="pp-bg" x1="0%" y1="0%" x2="100%" y2="100%">
<stop offset="0%" stop-color="#ffffff"/>
<stop offset="100%" stop-color="#f4f8ff"/>
</linearGradient>
</defs>
<rect width="220" height="88" rx="18" fill="url(#pp-bg)"/>
<g transform="translate(20 16)">
<path d="M32 4c12.8 0 23 8.8 23 21.3C55 41.7 41.7 52 25.8 52H13.4l4.8-30.2C20 11.2 25.2 4 32 4z" fill="#003087"/>
<path d="M43.4 10c9.6 0 18.3 6.5 18.3 16.9 0 13.4-11.6 23-26.1 23h-7.8l2.6-15.7c.9-5.9 6.1-10.2 13-10.2h7.5c2.1 0 3.9-1.2 4.4-3 1.5-5.9-2.4-11-11.9-11H31.8c2.7-5.2 6.9-8 11.6-8z" fill="#0070e0"/>
<path d="M48.5 17.2c7.7 0 12.7 4.7 11.2 10.9-.6 2.5-2.8 4.6-6.3 4.6h-7.7c-5 0-9.2 3.7-9.9 8.2l-2 11.1h-11l3.5-21.7c.8-4.9 5.1-8.5 10.1-8.5h12.1z" fill="#00a0e0"/>
</g>
<g fill="#003087" font-family="Poppins, Arial, sans-serif" font-size="30" font-weight="700">
<text x="90" y="55">PayPal</text>
</g>
</svg>
